name C:\Users\u0101727\Documents\MyRepositories\upper-imu-dc\Results\main_tracking\Case_66\kinematics.mot
datacolumns 10
datarows 28
range 0.50000000 0.77000000
endheader 
time	clav_prot	clav_elev	scapula_abduction	scapula_elevation	scapula_upward_rot	scapula_winging	plane_elv	shoulder_elv	axial_rot	
          0.50000000	        -23.89633232	         -6.34833537	        -15.23040842	         -5.25086923	         11.25026693	          6.58164393	        -30.12360370	         13.32312758	         45.89619545	
          0.51000000	        -23.96476281	         -6.39362249	        -15.41645490	         -5.24910061	         11.18937758	          6.60520354	        -29.42848033	         13.38061682	         45.33368417	
          0.52000000	        -23.89097395	         -6.41819523	        -15.31779260	         -5.24750069	         11.12943927	          6.62831245	        -28.73234066	         13.43907400	         44.77125028	
          0.53000000	        -23.81708755	         -6.44316493	        -15.21878802	         -5.24621131	         11.06954031	          6.65138464	        -28.03383389	         13.49694218	         44.20869166	
          0.54000000	        -23.74298605	         -6.46870462	        -15.11917559	         -5.24537166	         11.00972662	          6.67447312	        -27.33104510	         13.55375494	         43.64591271	
          0.55000000	        -23.66863330	         -6.49486842	        -15.01865951	         -5.24512895	         10.95039834	          6.69750154	        -26.62168352	         13.60941958	         43.08278782	
          0.56000000	        -23.59406826	         -6.52169296	        -14.91698453	         -5.24566688	         10.89212370	          6.72034820	        -25.90313776	         13.66402180	         42.51895400	
          0.57000000	        -23.51941901	         -6.54923700	        -14.81399288	         -5.24721752	         10.83556507	          6.74288008	        -25.17250179	         13.71777250	         41.95357375	
          0.58000000	        -23.44491996	         -6.57762758	        -14.70966531	         -5.25008788	         10.78144046	          6.76498118	        -24.42655741	         13.77096192	         41.38506945	
          0.59000000	        -23.37091730	         -6.60710654	        -14.60414332	         -5.25468517	         10.73048232	          6.78658177	        -23.66167900	         13.82389924	         40.81079727	
          0.60000000	        -23.00842901	         -6.66124610	        -13.99470303	         -5.26167754	         10.68336751	          6.80733450	        -22.87417163	         13.87710325	         40.22719399	
          0.61000000	        -22.93657329	         -6.69366480	        -13.88758557	         -5.27088613	         10.64044349	          6.82721465	        -22.06077661	         13.93176864	         39.63001130	
          0.62000000	        -23.39488234	         -6.68505630	        -14.69925253	         -5.28202485	         10.60165914	          6.84759392	        -21.21797762	         13.98926516	         39.01389173	
          0.63000000	        -23.32404553	         -6.71995295	        -14.58882225	         -5.29544137	         10.56716452	          6.86735889	        -20.34061309	         14.05110427	         38.37126167	
          0.64000000	        -23.25310900	         -6.75591084	        -14.47564128	         -5.31081708	         10.53688303	          6.88638569	        -19.42540946	         14.11936899	         37.69555720	
          0.65000000	        -23.18200080	         -6.79261228	        -14.35970728	         -5.32788030	         10.51073339	          6.90457253	        -18.46920993	         14.19597966	         36.97992861	
          0.66000000	        -23.17961997	         -6.82452937	        -14.36070229	         -5.34660260	         10.48877728	          6.92202740	        -17.46900230	         14.28238670	         36.21769962	
          0.67000000	        -23.29400258	         -6.84803685	        -14.56192446	         -5.36716304	         10.47110974	          6.93874725	        -16.42176677	         14.37970452	         35.40249096	
          0.68000000	        -23.27843539	         -6.88269969	        -14.53493638	         -5.38951462	         10.45773034	          6.95493823	        -15.32651723	         14.48928149	         34.53004143	
          0.69000000	        -23.20259723	         -6.92233156	        -14.40086301	         -5.41318234	         10.44872180	          6.97022508	        -14.18195011	         14.61286141	         33.59646962	
          0.70000000	        -23.21221242	         -6.95508660	        -14.41266798	         -5.43803178	         10.44432620	          6.98436867	        -12.98747387	         14.75170426	         32.59940457	
          0.71000000	        -23.18590355	         -6.99055194	        -14.35948631	         -5.46406766	         10.44474898	          6.99734121	        -11.74302885	         14.90665639	         31.53798133	
          0.72000000	        -23.28745633	         -7.01528020	        -14.52583964	         -5.49092490	         10.44986822	          7.00899094	        -10.44986161	         15.07867381	         30.41333195	
          0.73000000	        -23.21180713	         -7.05253196	        -14.38275097	         -5.51762385	         10.45893113	          7.01925608	         -9.11071325	         15.26909310	         29.22893902	
          0.74000000	        -23.21313237	         -7.08299333	        -14.37087895	         -5.54505441	         10.47264550	          7.02813750	         -7.72648494	         15.47759220	         27.98822069	
          0.75000000	        -23.21448650	         -7.11315018	        -14.35646820	         -5.57354748	         10.49119315	          7.03580693	         -6.29893962	         15.70389775	         26.69645633	
          0.76000000	        -23.23016336	         -7.14160269	        -14.36448039	         -5.60284823	         10.51439519	          7.04220555	         -4.83116726	         15.94817425	         25.36048648	
          0.77000000	        -23.15221069	         -7.17660031	        -14.20772237	         -5.63264311	         10.54203505	          7.04715483	         -3.32691094	         16.21055811	         23.98814376	
